<?xml version="1.0" encoding="utf-8"?>
<!-- Generator: Adobe Illustrator 27.2.0, SVG Export Plug-In . SVG Version: 6.00 Build 0)  -->
<svg version="1.1" id="Слой_1" xmlns="http://www.w3.org/2000/svg" xmlns:xlink="http://www.w3.org/1999/xlink" x="0px" y="0px"
	 width="96px" height="96px" viewBox="0 0 96 96" style="enable-background:new 0 0 96 96;" xml:space="preserve">
<g>
	<path d="M74.03,24.79c-6.63-7.22-15.94-11.34-25.78-11.34c-19.29,0-34.99,15.7-34.99,35c0,0.63,0.07,1.26,0.1,1.89l-7.12-7.12
		c-0.59-0.59-1.54-0.59-2.12,0L2.7,44.64c-0.59,0.59-0.59,1.54,0,2.12l10.6,10.61l1.41,1.41c0.59,0.59,1.54,0.59,2.12,0l1.41-1.41
		l10.6-10.61c0.59-0.59,0.59-1.54,0-2.12l-1.41-1.41c-0.59-0.59-1.54-0.59-2.12,0l-6.98,6.98c-0.03-0.58-0.09-1.16-0.09-1.75
		c0-16.54,13.46-30,29.99-30c8.4,0,16.34,3.49,22.02,9.63c0.55,0.59,1.45,0.68,2.06,0.16l1.54-1.29
		C74.51,26.41,74.6,25.42,74.03,24.79z"/>
	<path d="M93.82,50.24l-10.6-10.61l-1.41-1.41c-0.59-0.59-1.54-0.59-2.12,0l-1.41,1.41l-10.6,10.61c-0.59,0.59-0.59,1.54,0,2.12
		l1.41,1.41c0.59,0.59,1.54,0.59,2.12,0l6.95-6.96c0.03,0.54,0.09,1.09,0.09,1.63c0,16.54-13.46,30-29.99,30
		c-8.4,0-16.34-3.49-22.02-9.63c-0.55-0.59-1.45-0.68-2.06-0.16l-1.54,1.29c-0.65,0.54-0.73,1.54-0.16,2.16
		c6.63,7.22,15.94,11.34,25.78,11.34c19.29,0,34.99-15.7,34.99-35c0-0.61-0.07-1.22-0.1-1.83l7.15,7.15c0.59,0.59,1.54,0.59,2.12,0
		l1.41-1.41C94.41,51.78,94.41,50.83,93.82,50.24z"/>
</g>
</svg>
